<svg width="32" height="34" viewBox="0 0 32 34" fill="none" xmlns="http://www.w3.org/2000/svg">
<g clip-path="url(#clip0_0_786)">
<path d="M8 20.7355C10.2091 20.7355 12 18.8788 12 16.5885C12 14.2981 10.2091 12.4414 8 12.4414C5.79086 12.4414 4 14.2981 4 16.5885C4 18.8788 5.79086 20.7355 8 20.7355Z" stroke="#7C8493" stroke-width="2" stroke-linecap="round" stroke-linejoin="round"/>
<path d="M24 12.4416C26.2091 12.4416 28 10.5849 28 8.29452C28 6.00416 26.2091 4.14746 24 4.14746C21.7909 4.14746 20 6.00416 20 8.29452C20 10.5849 21.7909 12.4416 24 12.4416Z" stroke="#7C8493" stroke-width="2" stroke-linecap="round" stroke-linejoin="round"/>
<path d="M24 29.0295C26.2091 29.0295 28 27.1728 28 24.8824C28 22.5921 26.2091 20.7354 24 20.7354C21.7909 20.7354 20 22.5921 20 24.8824C20 27.1728 21.7909 29.0295 24 29.0295Z" stroke="#7C8493" stroke-width="2" stroke-linecap="round" stroke-linejoin="round"/>
<path d="M11.5996 14.7908L20.3996 10.0908" stroke="#7C8493" stroke-width="2" stroke-linecap="round" stroke-linejoin="round"/>
<path d="M11.5996 18.3857L20.3996 23.0857" stroke="#7C8493" stroke-width="2" stroke-linecap="round" stroke-linejoin="round"/>
</g>
<defs>
<clipPath id="clip0_0_786">
<rect width="32" height="33.1765" fill="white"/>
</clipPath>
</defs>
</svg>
