<svg width="10" height="10" viewBox="0 0 10 10" fill="none" xmlns="http://www.w3.org/2000/svg">
<g clip-path="url(#clip0_0_2374)">
<path d="M4.30232 1.79901C4.47982 1.06734 5.52064 1.06734 5.69814 1.79901C5.72477 1.90892 5.77698 2.011 5.85052 2.09692C5.92406 2.18284 6.01684 2.25019 6.12133 2.29348C6.22581 2.33677 6.33904 2.35477 6.4518 2.34603C6.56455 2.33729 6.67365 2.30204 6.77022 2.24317C7.41313 1.85151 8.14937 2.58733 7.75771 3.23066C7.69892 3.32718 7.66373 3.43622 7.65501 3.5489C7.64629 3.66158 7.66428 3.77473 7.70751 3.87915C7.75075 3.98357 7.81802 4.07631 7.90384 4.14984C7.98967 4.22337 8.09164 4.27561 8.20146 4.30232C8.93312 4.47982 8.93312 5.52064 8.20146 5.69814C8.09154 5.72477 7.98947 5.77698 7.90354 5.85052C7.81762 5.92406 7.75027 6.01684 7.70698 6.12133C7.66369 6.22581 7.64569 6.33904 7.65443 6.4518C7.66317 6.56455 7.69842 6.67365 7.75729 6.77022C8.14896 7.41313 7.41313 8.14937 6.7698 7.75771C6.67328 7.69892 6.56424 7.66373 6.45156 7.65501C6.33888 7.64629 6.22573 7.66428 6.12131 7.70751C6.01689 7.75075 5.92415 7.81802 5.85062 7.90384C5.77709 7.98967 5.72485 8.09164 5.69814 8.20146C5.52064 8.93312 4.47982 8.93312 4.30232 8.20146C4.27569 8.09154 4.22348 7.98947 4.14994 7.90354C4.0764 7.81762 3.98362 7.75027 3.87913 7.70698C3.77465 7.66369 3.66142 7.64569 3.54866 7.65443C3.43591 7.66317 3.32681 7.69842 3.23024 7.75729C2.58733 8.14896 1.85109 7.41313 2.24275 6.7698C2.30154 6.67328 2.33673 6.56424 2.34545 6.45156C2.35417 6.33888 2.33619 6.22573 2.29295 6.12131C2.24971 6.01689 2.18244 5.92415 2.09662 5.85062C2.01079 5.77709 1.90882 5.72485 1.79901 5.69814C1.06734 5.52064 1.06734 4.47982 1.79901 4.30232C1.90892 4.27569 2.011 4.22348 2.09692 4.14994C2.18284 4.0764 2.25019 3.98362 2.29348 3.87913C2.33677 3.77465 2.35477 3.66142 2.34603 3.54866C2.33729 3.43591 2.30204 3.32681 2.24317 3.23024C1.85151 2.58733 2.58733 1.85109 3.23066 2.24275C3.64566 2.49608 4.18732 2.27192 4.30232 1.79901Z" stroke="#25324B" stroke-width="0.783034" stroke-linecap="round" stroke-linejoin="round"/>
<path d="M6.24972 4.99973C6.24972 5.33125 6.11803 5.64919 5.88361 5.88361C5.64919 6.11803 5.33125 6.24972 4.99973 6.24972C4.66821 6.24972 4.35027 6.11803 4.11585 5.88361C3.88144 5.64919 3.74974 5.33125 3.74974 4.99973C3.74974 4.66821 3.88144 4.35027 4.11585 4.11585C4.35027 3.88144 4.66821 3.74974 4.99973 3.74974C5.33125 3.74974 5.64919 3.88144 5.88361 4.11585C6.11803 4.35027 6.24972 4.66821 6.24972 4.99973V4.99973Z" stroke="#25324B" stroke-width="0.783034" stroke-linecap="round" stroke-linejoin="round"/>
</g>
<defs>
<clipPath id="clip0_0_2374">
<rect width="9.39641" height="9.39641" fill="white" transform="scale(1.06423)"/>
</clipPath>
</defs>
</svg>
