<svg width="21" height="18" viewBox="0 0 21 18" fill="none" xmlns="http://www.w3.org/2000/svg">
<path fill-rule="evenodd" clip-rule="evenodd" d="M15.9536 3.32468L14.6767 4.09555L14.968 2.59128L13.9046 1.46549L15.3445 1.40461L15.9536 0L16.5628 1.40461H18.0002L16.9393 2.59128L17.2587 4.09555L15.9536 3.32468Z" fill="#FECA00"/>
<path fill-rule="evenodd" clip-rule="evenodd" d="M5.84344 9.71943L2.2019 11.6799L3.03251 7.85424L0 4.9911L4.10619 4.83629L5.84344 1.26406L7.5807 4.83629H11.6799L8.65438 7.85424L9.56524 11.6799L5.84344 9.71943Z" fill="#FECA00"/>
<path fill-rule="evenodd" clip-rule="evenodd" d="M18.4818 8.38092L17.2049 9.15179L17.4961 7.64752L16.4328 6.52172L17.8726 6.46085L18.4818 5.05624L19.0909 6.46085H20.5283L19.4674 7.64752L19.7868 9.15179L18.4818 8.38092Z" fill="#FECA00"/>
<path fill-rule="evenodd" clip-rule="evenodd" d="M17.2177 13.4372L15.9408 14.208L16.2321 12.7038L15.1687 11.578L16.6085 11.5171L17.2177 10.1125L17.8269 11.5171H19.2643L18.2034 12.7038L18.5228 14.208L17.2177 13.4372Z" fill="#FECA00"/>
<path fill-rule="evenodd" clip-rule="evenodd" d="M13.4255 17.2293L12.1486 18.0002L12.4399 16.4959L11.3765 15.3701L12.8164 15.3093L13.4255 13.9046L14.0347 15.3093H15.4721L14.4112 16.4959L14.7306 18.0002L13.4255 17.2293Z" fill="#FECA00"/>
</svg>
