<svg width="13" height="13" viewBox="0 0 13 13" fill="none" xmlns="http://www.w3.org/2000/svg">
<g clip-path="url(#clip0_0_2430)">
<circle cx="6.50012" cy="6.50012" r="6.50012" fill="#4640DE"/>
<mask id="path-2-inside-1_0_2430" fill="white">
<path d="M6.49972 10.9688C7.58248 10.9688 8.66525 10.1137 9.36819 9.41645C9.53035 9.25561 9.33509 9.02368 9.13316 9.1304C8.36904 9.53427 7.31957 9.99375 6.49972 9.99375C5.67987 9.99375 4.63039 9.53427 3.86627 9.1304C3.66435 9.02368 3.46909 9.25561 3.63124 9.41645C4.33419 10.1137 5.41695 10.9688 6.49972 10.9688Z"/>
</mask>
<path d="M9.36819 9.41645L10.2265 10.2817L10.2265 10.2817L9.36819 9.41645ZM3.63124 9.41645L2.77295 10.2817H2.77295L3.63124 9.41645ZM3.86627 9.1304L3.29675 10.2079H3.29675L3.86627 9.1304ZM9.13316 9.1304L9.70268 10.2079V10.2079L9.13316 9.1304ZM8.5099 8.55116C8.19717 8.86136 7.82622 9.17933 7.44226 9.41327C7.04781 9.65359 6.73014 9.74999 6.49972 9.74999V12.1875C7.35206 12.1875 8.11715 11.8564 8.71052 11.4949C9.31436 11.127 9.83628 10.6688 10.2265 10.2817L8.5099 8.55116ZM6.49972 9.74999C6.26929 9.74999 5.95162 9.65359 5.55718 9.41327C5.17322 9.17933 4.80227 8.86136 4.48954 8.55115L2.77295 10.2817C3.16316 10.6688 3.68507 11.127 4.28892 11.4949C4.88229 11.8564 5.64738 12.1875 6.49972 12.1875V9.74999ZM3.29675 10.2079C3.7093 10.426 4.21765 10.6693 4.75011 10.8606C5.26752 11.0464 5.88711 11.2125 6.49972 11.2125V8.77497C6.29248 8.77497 5.9774 8.71136 5.57408 8.5665C5.18582 8.42704 4.78737 8.2387 4.43579 8.05288L3.29675 10.2079ZM6.49972 11.2125C7.11233 11.2125 7.73192 11.0464 8.24932 10.8606C8.78179 10.6693 9.29014 10.426 9.70268 10.2079L8.56364 8.05288C8.21207 8.2387 7.81362 8.42704 7.42536 8.5665C7.02203 8.71136 6.70696 8.77497 6.49972 8.77497V11.2125ZM10.2265 10.2817C10.4678 10.0424 10.6344 9.70916 10.6464 9.32718C10.658 8.95984 10.5237 8.63383 10.3247 8.3943C9.91691 7.90341 9.19407 7.71967 8.56364 8.05288L9.70268 10.2079C9.27418 10.4344 8.74993 10.3133 8.44971 9.95188C8.30452 9.77709 8.20124 9.53255 8.2101 9.2506C8.21943 8.95401 8.34966 8.7101 8.5099 8.55116L10.2265 10.2817ZM4.48954 8.55116C4.64977 8.7101 4.78001 8.95401 4.78933 9.2506C4.7982 9.53255 4.69492 9.77709 4.54972 9.95188C4.24951 10.3133 3.72526 10.4344 3.29675 10.2079L4.43579 8.05288C3.80537 7.71967 3.08252 7.90341 2.67474 8.3943C2.47575 8.63383 2.34144 8.95984 2.35299 9.32718C2.365 9.70916 2.53163 10.0424 2.77295 10.2817L4.48954 8.55116Z" fill="white" mask="url(#path-2-inside-1_0_2430)"/>
<g clip-path="url(#clip1_0_2430)">
<path d="M8.82003 3.78499C8.69006 3.65414 8.69006 3.44437 8.82003 3.31351L9.51816 2.44864L9.51816 2.43362C9.69502 2.25865 9.98176 2.25865 10.1586 2.43362C10.3355 2.6086 10.3355 2.89229 10.1586 3.06727L9.33604 3.78499L9.30531 3.81223C9.24109 3.86296 9.16102 3.89098 9.07803 3.89098C8.98121 3.89098 8.88837 3.85284 8.82003 3.78499ZM3.52031 6.16941C3.52031 5.39923 3.82955 4.66061 4.38 4.11601C4.93046 3.57142 5.67703 3.26547 6.45549 3.26547C8.07655 3.26547 9.39068 4.5656 9.39068 6.16941C9.39068 7.77321 8.07655 9.07335 6.45549 9.07335C4.83443 9.07335 3.52031 7.77321 3.52031 6.16941Z" fill="white"/>
</g>
</g>
<defs>
<clipPath id="clip0_0_2430">
<rect width="12.5285" height="12.5285" fill="white" transform="scale(1.03765)"/>
</clipPath>
<clipPath id="clip1_0_2430">
<rect width="7.83034" height="7.83034" fill="white" transform="translate(2.8434 9.75025) scale(1.03765) rotate(-90)"/>
</clipPath>
</defs>
</svg>
