<svg width="10" height="10" viewBox="0 0 10 10" fill="none" xmlns="http://www.w3.org/2000/svg">
<g clip-path="url(#clip0_0_2389)">
<path d="M4.99976 8.7502L3.49977 7.25021H2.49978C2.10196 7.25021 1.72043 7.09218 1.43913 6.81088C1.15783 6.52957 0.999792 6.14805 0.999792 5.75022V2.75025C0.999792 2.35243 1.15783 1.9709 1.43913 1.6896C1.72043 1.40829 2.10196 1.25026 2.49978 1.25026H7.49974C7.89756 1.25026 8.27909 1.40829 8.56039 1.6896C8.8417 1.9709 8.99973 2.35243 8.99973 2.75025V5.75022C8.99973 6.14805 8.8417 6.52957 8.56039 6.81088C8.27909 7.09218 7.89756 7.25021 7.49974 7.25021H6.49975L4.99976 8.7502Z" stroke="#25324B" stroke-width="0.783034" stroke-linecap="round" stroke-linejoin="round"/>
<path d="M3.00042 3.24984H7.00038" stroke="#25324B" stroke-width="0.783034" stroke-linecap="round" stroke-linejoin="round"/>
<path d="M3.00042 5.25047H6.00039" stroke="#25324B" stroke-width="0.783034" stroke-linecap="round" stroke-linejoin="round"/>
</g>
<defs>
<clipPath id="clip0_0_2389">
<rect width="9.39641" height="9.39641" fill="white" transform="scale(1.06423)"/>
</clipPath>
</defs>
</svg>
