<svg width="40" height="30" viewBox="0 0 40 30" fill="none" xmlns="http://www.w3.org/2000/svg">
<path fill-rule="evenodd" clip-rule="evenodd" d="M0 0H40V30H0V0Z" fill="#F7FCFF"/>
<path fill-rule="evenodd" clip-rule="evenodd" d="M0 18.333V20.833H40V18.333H0Z" fill="#E31D1C"/>
<path fill-rule="evenodd" clip-rule="evenodd" d="M0 22.917V25.417H40V22.917H0Z" fill="#E31D1C"/>
<path fill-rule="evenodd" clip-rule="evenodd" d="M0 9.16699V11.667H40V9.16699H0Z" fill="#E31D1C"/>
<path fill-rule="evenodd" clip-rule="evenodd" d="M0 27.5V30H40V27.5H0Z" fill="#E31D1C"/>
<path fill-rule="evenodd" clip-rule="evenodd" d="M0 13.75V16.25H40V13.75H0Z" fill="#E31D1C"/>
<path fill-rule="evenodd" clip-rule="evenodd" d="M0 0V2.5H40V0H0Z" fill="#E31D1C"/>
<path fill-rule="evenodd" clip-rule="evenodd" d="M0 4.58301V7.08301H40V4.58301H0Z" fill="#E31D1C"/>
<rect width="25" height="16.25" fill="#2E42A5"/>
<path fill-rule="evenodd" clip-rule="evenodd" d="M2.15276 3.67326L1.24541 4.30937L1.55175 3.17736L0.74585 2.45997H1.79846L2.1515 1.53613L2.56546 2.45997H3.46278L2.75773 3.17736L3.03069 4.30937L2.15276 3.67326ZM7.15252 3.67338L6.24517 4.30949L6.5515 3.17748L5.74561 2.46009H6.79821L7.15125 1.53625L7.56522 2.46009H8.46254L7.75749 3.17748L8.03044 4.30949L7.15252 3.67338ZM11.2452 4.30949L12.1525 3.67338L13.0304 4.30949L12.7575 3.17748L13.4625 2.46009H12.5652L12.1513 1.53625L11.7982 2.46009H10.7456L11.5515 3.17748L11.2452 4.30949ZM17.1525 3.67338L16.2452 4.30949L16.5515 3.17748L15.7456 2.46009H16.7982L17.1513 1.53625L17.5652 2.46009H18.4625L17.7575 3.17748L18.0304 4.30949L17.1525 3.67338ZM1.24517 9.30949L2.15252 8.67338L3.03044 9.30949L2.75749 8.17748L3.46254 7.46009H2.56522L2.15125 6.53625L1.79821 7.46009H0.745605L1.5515 8.17748L1.24517 9.30949ZM7.15252 8.67338L6.24517 9.30949L6.5515 8.17748L5.74561 7.46009H6.79821L7.15125 6.53625L7.56522 7.46009H8.46254L7.75749 8.17748L8.03044 9.30949L7.15252 8.67338ZM11.2452 9.30949L12.1525 8.67338L13.0304 9.30949L12.7575 8.17748L13.4625 7.46009H12.5652L12.1513 6.53625L11.7982 7.46009H10.7456L11.5515 8.17748L11.2452 9.30949ZM17.1525 8.67338L16.2452 9.30949L16.5515 8.17748L15.7456 7.46009H16.7982L17.1513 6.53625L17.5652 7.46009H18.4625L17.7575 8.17748L18.0304 9.30949L17.1525 8.67338ZM1.24517 14.3095L2.15252 13.6734L3.03044 14.3095L2.75749 13.1775L3.46254 12.4601H2.56522L2.15125 11.5363L1.79821 12.4601H0.745605L1.5515 13.1775L1.24517 14.3095ZM7.15252 13.6734L6.24517 14.3095L6.5515 13.1775L5.74561 12.4601H6.79821L7.15125 11.5363L7.56522 12.4601H8.46254L7.75749 13.1775L8.03044 14.3095L7.15252 13.6734ZM11.2452 14.3095L12.1525 13.6734L13.0304 14.3095L12.7575 13.1775L13.4625 12.4601H12.5652L12.1513 11.5363L11.7982 12.4601H10.7456L11.5515 13.1775L11.2452 14.3095ZM17.1525 13.6734L16.2452 14.3095L16.5515 13.1775L15.7456 12.4601H16.7982L17.1513 11.5363L17.5652 12.4601H18.4625L17.7575 13.1775L18.0304 14.3095L17.1525 13.6734ZM21.2452 4.30949L22.1525 3.67338L23.0304 4.30949L22.7575 3.17748L23.4625 2.46009H22.5652L22.1513 1.53625L21.7982 2.46009H20.7456L21.5515 3.17748L21.2452 4.30949ZM22.1525 8.67338L21.2452 9.30949L21.5515 8.17748L20.7456 7.46009H21.7982L22.1513 6.53625L22.5652 7.46009H23.4625L22.7575 8.17748L23.0304 9.30949L22.1525 8.67338ZM21.2452 14.3095L22.1525 13.6734L23.0304 14.3095L22.7575 13.1775L23.4625 12.4601H22.5652L22.1513 11.5363L21.7982 12.4601H20.7456L21.5515 13.1775L21.2452 14.3095ZM4.65252 6.17338L3.74517 6.80949L4.0515 5.67748L3.24561 4.96009H4.29821L4.65125 4.03625L5.06522 4.96009H5.96254L5.25749 5.67748L5.53044 6.80949L4.65252 6.17338ZM8.74517 6.80949L9.65252 6.17338L10.5304 6.80949L10.2575 5.67748L10.9625 4.96009H10.0652L9.65125 4.03625L9.29821 4.96009H8.24561L9.0515 5.67748L8.74517 6.80949ZM14.6525 6.17338L13.7452 6.80949L14.0515 5.67748L13.2456 4.96009H14.2982L14.6513 4.03625L15.0652 4.96009H15.9625L15.2575 5.67748L15.5304 6.80949L14.6525 6.17338ZM3.74517 11.8095L4.65252 11.1734L5.53044 11.8095L5.25749 10.6775L5.96254 9.96009H5.06522L4.65125 9.03625L4.29821 9.96009H3.24561L4.0515 10.6775L3.74517 11.8095ZM9.65252 11.1734L8.74517 11.8095L9.0515 10.6775L8.24561 9.96009H9.29821L9.65125 9.03625L10.0652 9.96009H10.9625L10.2575 10.6775L10.5304 11.8095L9.65252 11.1734ZM13.7452 11.8095L14.6525 11.1734L15.5304 11.8095L15.2575 10.6775L15.9625 9.96009H15.0652L14.6513 9.03625L14.2982 9.96009H13.2456L14.0515 10.6775L13.7452 11.8095ZM19.6525 6.17338L18.7452 6.80949L19.0515 5.67748L18.2456 4.96009H19.2982L19.6513 4.03625L20.0652 4.96009H20.9625L20.2575 5.67748L20.5304 6.80949L19.6525 6.17338ZM18.7452 11.8095L19.6525 11.1734L20.5304 11.8095L20.2575 10.6775L20.9625 9.96009H20.0652L19.6513 9.03625L19.2982 9.96009H18.2456L19.0515 10.6775L18.7452 11.8095Z" fill="#F7FCFF"/>
</svg>
