<svg width="13" height="13" viewBox="0 0 13 13" fill="none" xmlns="http://www.w3.org/2000/svg">
<path d="M12.7715 4.82905C13.0641 5.94303 13.0641 7.05688 12.7714 8.17085C12.4786 9.28493 11.9162 10.2582 11.0838 11.0912C10.2513 11.9242 9.27855 12.4873 8.16538 12.7801C7.0522 13.0731 5.93913 13.0731 4.82587 12.7802C3.71254 12.4873 2.73975 11.9243 1.9074 11.0914C1.07502 10.2584 0.512578 9.28499 0.219715 8.17098C-0.0729179 7.05702 -0.0729182 5.94317 0.219736 4.82912C0.512516 3.7151 1.07506 2.74167 1.90745 1.9087C2.73983 1.07573 3.71267 0.512717 4.82587 0.219775C5.93896 -0.0731887 7.05216 -0.0730201 8.16531 0.219837C9.27849 0.512842 10.2512 1.07586 11.0836 1.90879C11.916 2.74177 12.4787 3.71527 12.7715 4.82905ZM10.4146 10.4217C11.4023 9.43337 11.938 8.24368 12.0216 6.8528L11.8425 6.82298C11.7707 6.81094 11.6155 6.80506 11.3765 6.80495C11.1376 6.80498 10.8936 6.82185 10.6447 6.85573C10.3956 6.8897 10.0811 6.95934 9.70069 7.06504C9.32032 7.17066 8.94091 7.30907 8.56253 7.4805C8.94897 8.78381 9.21984 10.0352 9.3751 11.2348C9.76545 10.9956 10.1119 10.7246 10.4146 10.4217ZM5.85656 12.0061C6.72069 12.1056 7.55705 12.0101 8.36556 11.7191C8.20227 10.5673 7.93533 9.32777 7.565 8.00059C6.03563 8.89334 4.66958 9.94148 3.46684 11.1452C4.19572 11.6194 4.99232 11.9064 5.85656 12.0061ZM1.42641 8.74476C1.69918 9.3685 2.08261 9.92754 2.57652 10.4218C2.6323 10.4776 2.67618 10.5174 2.70796 10.5414C4.14979 9.09853 5.67516 7.94263 7.28426 7.07388C7.16482 6.69923 7.04931 6.37241 6.93774 6.09337C6.91366 6.10156 6.87905 6.11835 6.8332 6.14426C6.78727 6.17028 6.75455 6.18921 6.73444 6.20125L6.4358 6.34469C6.2286 6.44038 5.9348 6.54305 5.55461 6.65262C5.17416 6.76205 4.75309 6.86078 4.29103 6.94843C3.82895 7.03606 3.29725 7.07195 2.69579 7.05587C2.09441 7.03996 1.51701 6.95436 0.963423 6.79895C0.999247 7.47248 1.15371 8.12118 1.42641 8.74476ZM2.57651 2.5782C1.64453 3.51084 1.11088 4.64276 0.975393 5.97389L0.999268 5.81842C1.4454 5.98591 1.94524 6.07564 2.49884 6.08747C3.05241 6.09934 3.54138 6.06659 3.96559 5.98893C4.38963 5.9111 4.8257 5.8015 5.27399 5.66016C5.72193 5.51859 6.02063 5.41517 6.16995 5.34917C6.31931 5.28338 6.43789 5.23063 6.52554 5.19082L6.54343 5.18494L6.55547 5.1729C5.92209 3.75817 5.20925 2.48659 4.41662 1.35875C3.71555 1.64562 3.10236 2.05212 2.57651 2.5782ZM7.67561 1.08051C6.92479 0.919066 6.17886 0.910104 5.43831 1.05356C6.19089 2.13374 6.8702 3.32339 7.4754 4.6227C8.39157 3.95326 9.14817 3.08034 9.74568 2.00433C9.11637 1.55001 8.42621 1.24201 7.67561 1.08051ZM10.4086 2.69181C10.3767 2.73958 10.3359 2.7985 10.2861 2.86817C10.2363 2.93783 10.1755 3.02266 10.1038 3.12231C10.0322 3.22183 9.9494 3.33055 9.85591 3.44806C9.76229 3.56565 9.66072 3.68916 9.5511 3.81879C9.44166 3.94832 9.32208 4.08378 9.19276 4.22525C9.06313 4.36686 8.92882 4.5073 8.7894 4.64682C8.65012 4.78619 8.49959 4.92875 8.33843 5.07419C8.17728 5.21974 8.01487 5.35405 7.85163 5.47761C7.85954 5.5096 7.87751 5.55741 7.90543 5.62119C7.9333 5.68489 7.95515 5.73288 7.97132 5.76452C8.06283 6.00773 8.16437 6.28478 8.27573 6.59569C8.66215 6.43234 9.05248 6.2987 9.44696 6.19497C9.8412 6.09147 10.1696 6.02178 10.4325 5.98581C10.6955 5.95002 10.9574 5.92912 11.2182 5.92314C11.4791 5.91708 11.6541 5.91916 11.7439 5.929C11.8337 5.93901 11.9202 5.94996 12.0038 5.96189L12.0158 5.96191C11.8883 4.67063 11.3688 3.55659 10.4565 2.62005L10.4086 2.69181Z" fill="white"/>
</svg>
