<svg width="10" height="10" viewBox="0 0 10 10" fill="none" xmlns="http://www.w3.org/2000/svg">
<path d="M4.99955 0.999792C4.20391 0.999792 3.44086 1.31586 2.87825 1.87846C2.31565 2.44107 1.99958 3.20413 1.99958 3.99977V5.79275L1.64608 6.14625C1.57618 6.21618 1.52857 6.30526 1.50929 6.40223C1.49001 6.49921 1.49991 6.59973 1.53774 6.69107C1.57558 6.78242 1.63965 6.8605 1.72185 6.91545C1.80405 6.97039 1.9007 6.99972 1.99958 6.99975H7.99953C8.09841 6.99972 8.19505 6.97039 8.27726 6.91545C8.35946 6.8605 8.42353 6.78242 8.46137 6.69107C8.4992 6.59973 8.5091 6.49921 8.48982 6.40223C8.47053 6.30526 8.42293 6.21618 8.35303 6.14625L7.99953 5.79275V3.99977C7.99953 3.20413 7.68346 2.44107 7.12086 1.87846C6.55825 1.31586 5.7952 0.999792 4.99955 0.999792ZM4.99955 8.99973C4.60173 8.99973 4.2202 8.8417 3.9389 8.56039C3.6576 8.27909 3.49957 7.89756 3.49957 7.49974H6.49954C6.49954 7.89756 6.34151 8.27909 6.06021 8.56039C5.7789 8.8417 5.39738 8.99973 4.99955 8.99973Z" fill="#202430"/>
<circle cx="7.50025" cy="2.50025" r="1.44575" fill="#FF6550" stroke="white" stroke-width="0.391517"/>
</svg>
