<svg width="1194" height="40" viewBox="0 0 1194 40" fill="none" xmlns="http://www.w3.org/2000/svg">
<g opacity="0.3">
<path d="M37.5616 20.0003C37.5616 25.0221 35.5829 29.8383 32.0608 33.3892C28.5387 36.9402 23.7618 38.9351 18.7808 38.9351C13.7998 38.9351 9.02284 36.9402 5.50076 33.3892C1.97868 29.8383 0 25.0221 0 20.0003C0 14.9784 1.97868 10.1623 5.50076 6.61132C9.02284 3.06034 13.7998 1.06543 18.7808 1.06543C23.7618 1.06543 28.5387 3.06034 32.0608 6.61132C35.5829 10.1623 37.5616 14.9784 37.5616 20.0003Z" fill="#202430"/>
<path d="M18.9349 30.5534C13.7741 30.5718 8.40424 26.1381 8.37698 19.002C8.36789 14.2843 10.8938 9.74984 14.1102 7.05664C17.2631 4.42756 21.5699 2.75118 25.4769 2.73286C25.9328 2.71556 26.3888 2.76493 26.8307 2.87943C25.1153 3.2606 23.5776 4.214 22.4663 5.58544C21.355 6.95688 20.735 8.66618 20.7067 10.4369C20.7067 10.5651 20.7067 10.6934 20.7249 10.7483C26.4491 12.1499 29.0386 15.6309 29.0567 20.4494C29.0532 21.7837 28.7882 23.1042 28.2771 24.3351C27.7659 25.5659 27.0186 26.6828 26.0781 27.6217C25.1376 28.5605 24.0224 29.3028 22.7966 29.806C21.5707 30.3091 20.2584 30.5631 18.9349 30.5534Z" fill="white"/>
<path d="M49.6913 27.8416L43.958 14.0183H47.7105L51.2995 23.1972L54.7704 14.0183H58.3502L52.7714 27.8416H49.6913ZM68.3358 20.8612C68.3399 20.3052 68.2727 19.751 68.1359 19.2123C68.0202 18.7356 67.8168 18.2851 67.5362 17.8841C67.2833 17.5205 66.9546 17.2172 66.5731 16.9955C66.166 16.7639 65.7047 16.6468 65.2374 16.6565C64.7701 16.6463 64.3087 16.7634 63.9018 16.9955C63.5163 17.2152 63.1841 17.5187 62.9296 17.8841C62.6512 18.2885 62.4508 18.7423 62.339 19.2215C62.2029 19.7572 62.1357 20.3083 62.1391 20.8612C62.1345 21.4173 62.2017 21.9716 62.339 22.5101C62.4534 22.9854 62.647 23.4376 62.9114 23.8476C63.1628 24.234 63.507 24.5501 63.9121 24.7663C64.3172 24.9825 64.77 25.0919 65.2283 25.0842C65.6865 25.0983 66.1403 24.9916 66.5451 24.7747C66.9498 24.5578 67.2914 24.2383 67.5362 23.8476C67.8128 23.4443 68.0159 22.9945 68.1359 22.5193C68.2739 21.9778 68.3411 21.4203 68.3358 20.8612ZM71.7975 20.8704C71.7977 21.7719 71.6597 22.6679 71.3887 23.527C71.1243 24.3744 70.7086 25.1661 70.162 25.8629C69.5759 26.6062 68.8251 27.2006 67.9698 27.5983C67.1146 27.996 66.1787 28.186 65.2374 28.153C64.2951 28.1838 63.3587 27.9929 62.5023 27.5954C61.6459 27.1979 60.8932 26.6047 60.3037 25.8629C59.7583 25.1653 59.3427 24.3739 59.0771 23.527C58.5372 21.8071 58.5372 19.9611 59.0771 18.2413C59.343 17.4029 59.7587 16.6205 60.3037 15.9329C60.8583 15.2448 61.5563 14.6881 62.3481 14.3023C63.2501 13.8711 64.2394 13.6578 65.2374 13.6794C66.1728 13.6533 67.1018 13.8427 67.9536 14.2332C68.8054 14.6237 69.5576 15.205 70.153 15.9329C70.6981 16.6107 71.1161 17.3802 71.3887 18.2413C71.6612 19.1024 71.7975 19.9818 71.7975 20.8704ZM82.3918 17.0688C81.7899 16.8131 81.1458 16.6733 80.4928 16.6565C79.9824 16.6316 79.4738 16.7359 79.0136 16.9599C78.5534 17.1839 78.156 17.5205 77.8579 17.939C77.5709 18.3411 77.3557 18.7906 77.2219 19.2673C77.0809 19.7585 77.0105 20.2675 77.0129 20.7788C77.0098 21.3337 77.0707 21.887 77.1946 22.4277C77.3038 22.9161 77.4976 23.3812 77.767 23.8018C78.0124 24.1888 78.3417 24.5145 78.7301 24.7545C79.1118 24.9926 79.5751 25.1209 80.093 25.1209C80.5612 25.1104 81.0198 24.9846 81.4287 24.7545C81.8205 24.5683 82.1538 24.2766 82.3918 23.9117V17.0688ZM82.6735 27.8416L82.5372 26.7789C82.1752 27.1754 81.744 27.5015 81.2651 27.7408C80.5707 28.0403 79.8186 28.1793 79.0639 28.1476C78.3092 28.1159 77.5712 27.9143 76.9039 27.5576C76.1884 27.1607 75.5681 26.6104 75.0867 25.9453C74.5782 25.246 74.1968 24.4613 73.96 23.6277C73.7048 22.7344 73.5763 21.8092 73.5784 20.8796C73.5784 19.9727 73.7056 19.0932 73.9691 18.2322C74.2254 17.3961 74.6353 16.6162 75.1775 15.9329C75.7632 15.2008 76.5097 14.6161 77.3581 14.225C78.2065 13.8339 79.1335 13.6471 80.0658 13.6794C80.7927 13.6794 81.565 13.8168 82.3918 14.0824V8.72352H85.9172V27.8416H82.6735ZM95.8391 21.3559C95.0618 21.4084 94.2882 21.5063 93.5222 21.649C92.7589 21.8048 92.2319 22.0613 91.9321 22.4368C91.6514 22.7799 91.4973 23.2105 91.496 23.6552C91.496 24.1132 91.6595 24.4797 91.9957 24.7545C92.4027 25.0549 92.9004 25.2038 93.404 25.1759C93.8583 25.1759 94.3126 25.0842 94.7397 24.8919C95.1436 24.7141 95.5152 24.4695 95.8391 24.1682V21.3559ZM96.1208 27.8232L95.9845 26.7973C95.5815 27.2372 95.0843 27.5787 94.5307 27.7958C93.3664 28.2603 92.0739 28.2799 90.8963 27.8507C90.0508 27.5665 89.3182 27.0162 88.8062 26.2807C88.2942 25.5452 88.03 24.6634 88.0524 23.7651C88.0407 23.1602 88.1683 22.5607 88.4253 22.0139C88.6823 21.4671 89.0616 20.9879 89.5334 20.6139C90.0102 20.2399 90.5401 19.9404 91.1053 19.7253C92.1874 19.3384 93.3141 19.0921 94.458 18.9925L95.8209 18.8642V18.6627C95.8209 17.9024 95.621 17.3619 95.2303 17.0321C94.7648 16.6833 94.192 16.5113 93.613 16.5466C92.5832 16.5518 91.5803 16.8782 90.7418 17.481C90.5586 17.5983 90.3826 17.7268 90.2149 17.8657L89.0428 15.3741C89.605 14.944 90.2224 14.5927 90.8781 14.3298C92.586 13.614 94.4816 13.4915 96.2661 13.9817C96.8797 14.175 97.4412 14.5076 97.9074 14.9538C98.3736 15.4 98.7322 15.9481 98.9556 16.5558C99.2287 17.322 99.3581 18.1328 99.3372 18.9467V27.8324L96.1208 27.8232ZM110.231 11.8747C109.603 11.5913 108.92 11.4535 108.232 11.4717C107.751 11.4717 107.333 11.6182 107.006 11.9205C106.67 12.2137 106.506 12.6992 106.506 13.3679V14.0183H109.468V16.8856H106.533V27.8416H103.008V16.8856H101.191V14.0183H103.008V13.2855C103.008 12.3786 103.126 11.6182 103.353 10.9953C103.539 10.4373 103.851 9.9311 104.267 9.51739C104.682 9.10368 105.187 8.7941 105.743 8.61359C107.362 8.17769 109.077 8.28378 110.631 8.91589L110.231 11.8747ZM119.844 20.8612C119.847 20.3053 119.78 19.7513 119.644 19.2123C119.529 18.7356 119.325 18.2851 119.045 17.8841C118.792 17.5205 118.463 17.2172 118.082 16.9955C117.675 16.7639 117.213 16.6468 116.746 16.6565C116.279 16.6463 115.817 16.7634 115.41 16.9955C115.026 17.2166 114.694 17.5199 114.438 17.8841C114.159 18.2894 113.956 18.7426 113.838 19.2215C113.562 20.3031 113.562 21.4377 113.838 22.5193C113.958 22.9914 114.155 23.4402 114.42 23.8476C114.668 24.2255 115.001 24.5392 115.392 24.7636C115.808 24.9895 116.274 25.1031 116.746 25.0934C117.203 25.1049 117.656 24.996 118.059 24.7776C118.462 24.5591 118.802 24.2386 119.045 23.8476C119.321 23.4443 119.524 22.9945 119.644 22.5193C119.781 21.9774 119.848 21.4202 119.844 20.8612ZM123.306 20.8704C123.308 21.772 123.17 22.6683 122.897 23.527C122.634 24.3751 122.219 25.167 121.671 25.8629C121.084 26.6062 120.334 27.2006 119.478 27.5983C118.623 27.996 117.687 28.186 116.746 28.153C115.804 28.1838 114.867 27.9929 114.011 27.5954C113.154 27.1979 112.402 26.6047 111.812 25.8629C111.267 25.1653 110.851 24.3739 110.586 23.527C110.039 21.8083 110.039 19.96 110.586 18.2413C110.849 17.4035 111.261 16.6212 111.803 15.9329C112.36 15.2437 113.062 14.687 113.857 14.3023C114.759 13.8711 115.748 13.6578 116.746 13.6794C117.681 13.6533 118.61 13.8427 119.462 14.2332C120.314 14.6237 121.066 15.205 121.662 15.9329C122.207 16.6107 122.625 17.3802 122.897 18.2413C123.17 19.1024 123.306 19.9818 123.306 20.8704ZM134.255 27.8416V19.9635C134.309 19.0979 134.079 18.2383 133.601 17.5176C133.388 17.2378 133.112 17.0135 132.796 16.8637C132.48 16.7138 132.132 16.6428 131.783 16.6565C131.244 16.6503 130.715 16.7997 130.257 17.0871C129.818 17.3547 129.412 17.6746 129.048 18.0398V27.8416H125.523V14.0183H128.74L128.903 15.1176C130.012 14.1853 131.411 13.6762 132.855 13.6794C133.582 13.6794 134.246 13.7893 134.854 14.0091C135.448 14.2255 135.982 14.5839 136.408 15.0534C136.853 15.5298 137.19 16.1527 137.426 16.913C137.662 17.6825 137.78 18.5986 137.78 19.6612V27.8416H134.255ZM148.747 19.2673C148.721 18.8374 148.619 18.4156 148.447 18.0215C148.307 17.6968 148.103 17.4039 147.847 17.1604C147.407 16.7496 146.83 16.5207 146.23 16.5191C145.586 16.5308 144.967 16.7745 144.486 17.2062C144.195 17.4671 143.96 17.7838 143.793 18.1378C143.626 18.4917 143.531 18.8758 143.513 19.2673H148.747ZM143.432 21.8231C143.504 22.9865 143.868 23.8293 144.522 24.3422C145.242 24.8821 146.124 25.1569 147.021 25.1209C147.859 25.1199 148.69 24.9646 149.474 24.6629C149.761 24.548 150.041 24.4134 150.31 24.2598C150.493 24.1546 150.664 24.0286 150.819 23.8842L151.763 26.7789C151.229 27.1436 150.644 27.4275 150.028 27.6217C148.903 27.9695 147.734 28.1485 146.557 28.153C145.691 28.1561 144.831 28.0105 144.013 27.7225C143.219 27.443 142.496 26.9894 141.896 26.3942C141.261 25.7531 140.766 24.9856 140.442 24.1407C140.058 23.1173 139.873 22.0286 139.897 20.9345C139.897 19.762 140.07 18.736 140.397 17.8383C140.804 16.6075 141.59 15.5401 142.641 14.7919C143.692 14.0437 144.953 13.6539 146.239 13.6794C147.067 13.671 147.89 13.817 148.665 14.1099C149.401 14.3939 150.037 14.8428 150.573 15.4382C151.118 16.0428 151.545 16.8214 151.854 17.7833C152.172 18.736 152.327 19.8719 152.327 21.191V21.8231H143.432Z" fill="#202430"/>
</g>
<g opacity="0.3" clip-path="url(#clip0_0_2848)">
<path d="M291.304 0.446289H297.244V6.41618H291.304V0.446289Z" fill="#202430"/>
<path d="M297.096 31.5512V10.0297H291.452V31.5299H297.097L297.096 31.5512ZM334.472 31.7636V26.4948C333.647 26.4948 332.95 26.4523 332.442 26.3674C331.85 26.2824 331.406 26.0699 331.11 25.7725C330.814 25.4751 330.624 25.0501 330.518 24.4765C330.434 23.9453 330.392 23.2443 330.392 22.3945V14.8949H334.472V10.0297H330.392V1.65911H324.747V22.4583C324.747 24.2216 324.895 25.7087 325.191 26.8985C325.487 28.067 325.995 29.023 326.692 29.7453C327.39 30.4677 328.32 30.9775 329.44 31.2963C330.582 31.6149 332.019 31.7636 333.732 31.7636H334.472ZM366.773 31.5512V0.00195312H361.129V31.5512H366.773ZM319.314 12.1543C317.75 10.4546 315.552 9.60483 312.761 9.60483C311.408 9.60483 310.161 9.88103 309.062 10.4334C307.941 10.9858 307.011 11.7506 306.25 12.7278L305.954 13.1315V10.0297H300.394V31.5299H305.996V20.0787V20.4824C306.06 18.4641 306.546 16.9769 307.476 16.0209C308.47 15.0011 309.675 14.4913 311.049 14.4913C312.677 14.4913 313.924 15.0011 314.748 15.9784C315.552 16.9557 315.974 18.3366 315.974 20.1V31.5299H321.661V19.3351C321.682 16.2758 320.879 13.8539 319.314 12.1543ZM358.211 20.7585C358.211 19.2077 357.937 17.763 357.408 16.4033C356.859 15.0648 356.097 13.8751 355.146 12.8553C354.174 11.8356 353.011 11.0495 351.658 10.4759C350.305 9.90223 348.804 9.62603 347.177 9.62603C345.633 9.62603 344.175 9.92351 342.822 10.4971C341.469 11.092 340.285 11.8781 339.291 12.8766C338.298 13.8751 337.495 15.0649 336.924 16.4246C336.332 17.7843 336.057 19.2502 336.057 20.8011C336.057 22.352 336.332 23.8179 336.881 25.1776C337.431 26.5373 338.213 27.727 339.186 28.7256C340.158 29.7241 341.363 30.5314 342.758 31.105C344.154 31.6999 345.697 31.9974 347.346 31.9974C352.123 31.9974 355.083 29.8091 356.859 27.7695L352.8 24.6677C351.954 25.6875 349.925 27.0685 347.388 27.0685C345.802 27.0685 344.492 26.7072 343.498 25.9637C342.505 25.2413 341.828 24.2216 341.469 22.9681L341.405 22.7769H358.211V20.7585ZM341.448 18.7828C341.448 17.2106 343.245 14.47 347.113 14.4488C350.982 14.4488 352.8 17.1894 352.8 18.7615L341.448 18.7828ZM373.2 28.8318C373.094 28.5769 372.946 28.3644 372.756 28.1732C372.566 27.982 372.354 27.8333 372.101 27.727C371.847 27.6208 371.572 27.5571 371.297 27.5571C371.001 27.5571 370.748 27.6208 370.494 27.727C370.24 27.8333 370.029 27.982 369.839 28.1732C369.648 28.3644 369.5 28.5769 369.395 28.8318C369.289 29.0867 369.226 29.3629 369.226 29.6391C369.226 29.9365 369.289 30.1914 369.395 30.4465C369.5 30.7013 369.648 30.9138 369.839 31.105C370.029 31.2963 370.24 31.445 370.494 31.5512C370.748 31.6574 371.022 31.7211 371.297 31.7211C371.593 31.7211 371.847 31.6574 372.101 31.5512C372.354 31.445 372.566 31.2963 372.756 31.105C372.946 30.9138 373.094 30.7014 373.2 30.4465C373.306 30.1915 373.369 29.9153 373.369 29.639C373.369 29.3627 373.305 29.0867 373.2 28.8318H373.2ZM372.862 30.319C372.777 30.5314 372.65 30.7226 372.502 30.8714C372.354 31.0201 372.164 31.1475 371.953 31.2325C371.741 31.3175 371.53 31.3599 371.276 31.3599C371.044 31.3599 370.811 31.3175 370.6 31.2325C370.388 31.1476 370.198 31.0201 370.05 30.8713C369.902 30.7226 369.775 30.5314 369.691 30.319C369.606 30.1065 369.564 29.894 369.564 29.6391C369.564 29.4054 369.606 29.1717 369.691 28.9593C369.775 28.7468 369.902 28.5556 370.05 28.4069C370.198 28.2582 370.388 28.1307 370.6 28.0456C370.811 27.9607 371.022 27.9182 371.276 27.9182C371.509 27.9182 371.741 27.9608 371.953 28.0457C372.164 28.1307 372.354 28.2582 372.502 28.407C372.65 28.5556 372.777 28.7467 372.862 28.9593C372.946 29.1718 372.988 29.3842 372.988 29.6391C372.988 29.894 372.946 30.1065 372.862 30.319ZM371.678 29.8303C371.847 29.8091 371.974 29.7453 372.079 29.6391C372.185 29.5329 372.248 29.3842 372.248 29.1717C372.248 28.938 372.185 28.768 372.037 28.6406C371.91 28.5131 371.678 28.4493 371.403 28.4493H370.473V30.8501H370.917V29.8728H371.234L371.826 30.8501H372.291L371.678 29.8303ZM371.445 29.4691H370.917V28.7893H371.445C371.508 28.7893 371.572 28.8105 371.635 28.8318C371.699 28.8531 371.741 28.8955 371.762 28.938C371.805 28.9805 371.805 29.0442 371.805 29.1292C371.805 29.2141 371.783 29.278 371.762 29.3204C371.72 29.3629 371.678 29.4054 371.635 29.4267C371.572 29.4479 371.508 29.4691 371.445 29.4691H371.445Z" fill="#202430"/>
</g>
<g opacity="0.3" clip-path="url(#clip1_0_2848)">
<path d="M667.202 9.5232V23.9856H671.791V14.344H688.571V23.9856H693.159V9.5232H667.202ZM671.266 4.83448H688.964C691.455 4.37221 693.225 2.1269 693.749 0.0136719H666.481C667.006 2.1269 668.841 4.30617 671.266 4.83448ZM653.241 23.9856C655.535 22.995 656.78 21.278 657.305 19.2969H636.657V0.0797103H632.003V23.9856H653.241ZM597.59 4.76844H613.977C616.468 4.04202 618.5 2.1269 619.025 0.0797103H593.068V14.2119H614.305V19.1648H597.656C595.034 19.8912 592.805 21.6743 591.691 23.9856H618.893V9.5232H597.656L597.59 4.76844ZM557.213 4.83448H574.911C577.402 4.37221 579.237 2.1269 579.696 0.0136719H552.362C552.887 2.1269 554.722 4.30617 557.213 4.83448ZM557.213 14.278H574.911C577.402 13.8157 579.237 11.5704 579.696 9.45717H552.362C552.887 11.5704 554.722 13.7497 557.213 14.278ZM557.213 23.9856H574.911C577.402 23.5233 579.237 21.278 579.696 19.1648H552.362C552.887 21.278 554.722 23.5233 557.213 23.9856Z" fill="#202430"/>
<path d="M511.133 0.0797103C511.657 2.19294 513.493 4.30617 515.918 4.83448H523.39L523.784 4.96655V23.9196H528.437V4.96655L528.831 4.83448H536.303C538.794 4.17409 540.564 2.19294 541.088 0.0797103V0.0136719L511.133 0.0797103Z" fill="#202430"/>
</g>
<g opacity="0.3" clip-path="url(#clip2_0_2848)">
<path d="M858.947 26.1392H852.49L850.515 21.335H839.755L837.955 26.1392H831.605L841.307 1.87487H848.257L858.947 26.1392ZM844.87 7.67292L841.342 17.1007H848.751L844.87 7.67292ZM882.4 1.87487H887.621V26.1392H881.623V10.983L875.132 18.5959H874.215L867.724 10.983V26.1389H861.726V1.87487H866.947L874.673 10.8759L882.4 1.87487ZM902.819 1.87487C911.603 1.87487 916.118 7.38866 916.118 14.0417C916.118 21.0147 911.744 26.1392 902.148 26.1392H892.199V1.87487H902.819ZM898.197 21.692H902.112C908.145 21.692 909.944 17.5641 909.944 14.0057C909.944 9.84275 907.721 6.32151 902.042 6.32151H898.197V21.692H898.197ZM928.051 7.62816L920.488 0H948.021V27.7664L940.458 20.1391V7.62816H928.051ZM928.042 9.1567L920.256 17.0086V28H931.153L938.939 20.1481H928.042V9.1567Z" fill="#202430"/>
</g>
<g opacity="0.3">
<path d="M1096.64 31.6074C1096.06 31.6074 1095.77 31.3594 1095.77 30.861V30.7045C1095.77 30.3914 1096.04 29.9195 1096.56 29.291C1097.11 28.6373 1097.39 27.9823 1097.39 27.3286V6.68086H1095.4C1094.82 6.68086 1094.3 6.93008 1093.82 7.42731C1093.37 7.91675 1093.01 8.47276 1092.73 9.07552C1092.48 9.65101 1092.17 10.188 1091.79 10.6852C1091.42 11.1824 1091.04 11.4316 1090.66 11.4316H1090.03C1089.33 11.4316 1089.01 11.0512 1089.09 10.2927L1089.84 4.95319C1089.91 4.14294 1090.34 3.7372 1091.12 3.7372H1110.42C1111.17 3.7372 1111.6 4.14294 1111.69 4.95319L1112.48 10.3312C1112.53 10.672 1112.47 10.9465 1112.3 11.1559C1112.12 11.3389 1111.87 11.4304 1111.54 11.4304H1110.91C1110.53 11.4304 1110.16 11.1824 1109.78 10.684C1109.4 10.1856 1109.08 9.65101 1108.8 9.07552C1108.53 8.47354 1108.15 7.92454 1107.68 7.42611C1107.2 6.93008 1106.68 6.68086 1106.1 6.68086H1104.15V27.3286C1104.15 27.9823 1104.41 28.6373 1104.94 29.291C1105.49 29.9195 1105.76 30.3902 1105.76 30.7045V30.861C1105.76 31.3594 1105.46 31.6074 1104.86 31.6074H1096.64ZM1128.43 27.3286C1128.51 27.9571 1128.64 28.4675 1128.84 28.86C1129.07 29.226 1129.28 29.462 1129.48 29.5667C1129.71 29.6715 1129.91 29.8015 1130.08 29.9592C1130.26 30.1157 1130.35 30.312 1130.35 30.548C1130.35 31.4112 1128.93 31.8434 1126.1 31.8434C1124.95 31.8434 1124.09 31.6989 1123.51 31.41C1122.96 31.1235 1122.61 30.6395 1122.46 29.9592C1121.51 31.3197 1119.92 31.9999 1117.69 31.9999C1115.59 31.9999 1113.87 31.4895 1112.54 30.4685C1111.24 29.4488 1110.59 27.9703 1110.59 26.0332C1110.59 24.149 1111.24 22.6838 1112.54 21.6363C1113.85 20.5648 1115.45 20.0278 1117.35 20.0278C1118.83 20.0278 1120.09 20.3541 1121.15 21.0091V20.8911C1120.89 18.3002 1120.61 16.5472 1120.28 15.6298C1119.98 14.7148 1119.38 14.2573 1118.48 14.2573C1117.9 14.2573 1117.44 14.5318 1117.09 15.0808C1116.74 15.6383 1116.47 16.2474 1116.3 16.8867C1116.15 17.5515 1115.84 18.1702 1115.4 18.6927C1114.95 19.2429 1114.35 19.5174 1113.6 19.5174C1112.82 19.5174 1112.18 19.2814 1111.68 18.8107C1111.21 18.3399 1110.97 17.7247 1110.97 16.9662C1110.97 15.448 1111.69 14.3091 1113.15 13.5506C1114.6 12.7656 1116.38 12.3731 1118.48 12.3731C1120.98 12.3731 1123.05 13.0919 1124.68 14.5318C1126.33 15.9453 1127.3 17.868 1127.6 20.3023L1128.43 27.3286ZM1119.76 29.9978C1120.33 29.9978 1120.79 29.71 1121.14 29.1345C1121.52 28.559 1121.71 27.9041 1121.71 27.1721L1121.56 25.3662C1121.31 23.1942 1120.53 22.1083 1119.23 22.1083C1118.65 22.1083 1118.19 22.3563 1117.84 22.8547C1117.49 23.3243 1117.31 23.966 1117.31 24.7774C1117.31 26.2426 1117.53 27.4863 1117.95 28.5061C1118.4 29.5005 1119.01 29.999 1119.76 29.999V29.9978ZM1131.99 31.6074C1131.41 31.6074 1131.13 31.3594 1131.13 30.861V30.7045C1131.13 30.3914 1131.36 29.9195 1131.84 29.291C1132.34 28.6373 1132.59 27.9823 1132.59 27.3286V9.38975C1132.59 8.70952 1132.34 8.05457 1131.84 7.42731C1131.36 6.77236 1131.13 6.31486 1131.13 6.0524V5.89589C1131.13 5.60694 1131.4 5.30595 1131.95 4.99292L1137.62 2.08779C1138.15 1.85302 1138.56 1.83978 1138.86 2.04927C1139.19 2.23227 1139.35 2.52001 1139.35 2.9125V27.3286C1139.35 27.9823 1139.63 28.6373 1140.18 29.291C1140.73 29.9195 1141 30.3902 1141 30.7045V30.861C1141 31.3594 1140.7 31.6074 1140.1 31.6074H1131.99ZM1162.59 28.3098C1162.71 28.4928 1163.09 28.8335 1163.71 29.3308C1164.36 29.828 1164.69 30.2855 1164.69 30.7045V30.861C1164.69 31.3594 1164.4 31.6074 1163.83 31.6074H1155.94C1155.36 31.6074 1155.08 31.3462 1155.08 30.8225V30.7045C1155.08 30.3914 1155.26 30.011 1155.64 29.5655C1156.02 29.096 1156.09 28.6758 1155.86 28.3098L1152.56 23.1677L1150.68 24.9737V27.3286C1150.68 27.9823 1150.96 28.6373 1151.51 29.291C1152.08 29.9195 1152.37 30.3902 1152.37 30.7045V30.861C1152.37 31.3594 1152.07 31.6074 1151.47 31.6074H1143.36C1142.76 31.6074 1142.46 31.3594 1142.46 30.861V30.7045C1142.46 30.3914 1142.71 29.9195 1143.21 29.291C1143.71 28.6373 1143.96 27.9823 1143.96 27.3286V9.38975C1143.96 8.70952 1143.66 8.05457 1143.06 7.42731C1142.46 6.77236 1142.16 6.31486 1142.16 6.0524V5.89589C1142.16 5.60694 1142.43 5.30595 1142.98 4.99292L1148.99 2.08779C1149.52 1.87831 1149.93 1.86627 1150.23 2.04927C1150.53 2.23227 1150.68 2.52001 1150.68 2.9125V21.5581L1155.75 17.0047C1156.05 16.7952 1156.17 16.534 1156.09 16.2198C1156.05 15.9148 1155.92 15.629 1155.72 15.3951C1155.52 15.1041 1155.32 14.8163 1155.12 14.5318C1154.91 14.2188 1154.81 13.9419 1154.81 13.7071V13.5506C1154.81 13.0269 1155.1 12.7656 1155.68 12.7656H1161.61C1162.19 12.7656 1162.48 13.0136 1162.48 13.5121V13.6686C1162.48 13.9816 1162.3 14.3091 1161.95 14.6498C1161.6 14.9628 1161.1 15.3433 1160.45 15.7875C1159.91 16.1345 1159.41 16.529 1158.95 16.9662L1156.54 19.2814L1162.59 28.3098ZM1170.16 10.4492C1168.88 10.4492 1167.84 10.0832 1167.04 9.35002C1166.24 8.59153 1165.84 7.64884 1165.84 6.52435C1165.84 5.39865 1166.24 4.46921 1167.04 3.7372C1167.84 2.97872 1168.88 2.59827 1170.16 2.59827C1171.41 2.59827 1172.44 2.97751 1173.24 3.7372C1174.04 4.46921 1174.44 5.39865 1174.44 6.52435C1174.44 7.64884 1174.04 8.59153 1173.24 9.35002C1172.44 10.0832 1171.41 10.4492 1170.16 10.4492ZM1166.14 31.6074C1165.54 31.6074 1165.24 31.3594 1165.24 30.861V30.7045C1165.24 30.3914 1165.49 29.9063 1165.99 29.2525C1166.49 28.5988 1166.74 27.9438 1166.74 27.2901V19.8316C1166.74 19.1514 1166.49 18.4964 1165.99 17.8692C1165.49 17.2142 1165.24 16.7688 1165.24 16.5328V16.3763C1165.24 16.0632 1165.53 15.7623 1166.1 15.4733L1171.77 12.5694C1172.3 12.3334 1172.71 12.3069 1173.01 12.4911C1173.31 12.6741 1173.46 12.9751 1173.46 13.3941V27.2901C1173.46 27.9438 1173.74 28.5976 1174.29 29.2525C1174.87 29.9063 1175.15 30.3902 1175.15 30.7045V30.861C1175.15 31.3582 1174.84 31.6074 1174.21 31.6074H1166.14ZM1184.56 31.9999C1182.66 31.9999 1181.16 31.3715 1180.06 30.1157C1178.98 28.86 1178.44 27.0673 1178.44 24.7377V15.4348H1177.02C1176.78 15.4403 1176.55 15.3559 1176.38 15.1988C1176.23 15.0108 1176.15 14.7742 1176.15 14.5318V13.6686C1176.15 13.0666 1176.44 12.7656 1177.02 12.7656H1177.73C1178.88 12.7656 1179.87 12.4117 1180.7 11.7061C1181.52 10.9717 1182.06 10.005 1182.31 8.80102C1182.44 8.12078 1182.77 7.78007 1183.32 7.78007H1184.19C1184.86 7.78007 1185.2 8.12078 1185.2 8.80102V12.7656H1189.07C1189.32 12.7656 1189.52 12.8571 1189.67 13.0401C1189.85 13.1966 1189.94 13.4061 1189.94 13.6686V14.5318C1189.94 14.655 1189.92 14.7775 1189.87 14.892C1189.83 15.0065 1189.76 15.1108 1189.67 15.1988C1189.59 15.2781 1189.5 15.3401 1189.4 15.3808C1189.29 15.4214 1189.18 15.4398 1189.07 15.4348H1185.2V24.8557C1185.2 25.5094 1185.36 26.0332 1185.69 26.4256C1186.02 26.7928 1186.42 26.9758 1186.89 26.9758C1187.97 26.9758 1188.79 26.4919 1189.37 25.5227C1189.55 25.2879 1189.75 25.1567 1189.97 25.1302C1190.2 25.0784 1190.39 25.1181 1190.53 25.2482C1190.71 25.3794 1190.8 25.5612 1190.8 25.7984C1190.8 27.4466 1190.24 28.8986 1189.11 30.1555C1188.01 31.3847 1186.49 31.9999 1184.56 31.9999Z" fill="#202430"/>
</g>
<defs>
<clipPath id="clip0_0_2848">
<rect width="82.0647" height="32" fill="white" transform="translate(291.304)"/>
</clipPath>
<clipPath id="clip1_0_2848">
<rect width="182.682" height="24" fill="white" transform="translate(511.133)"/>
</clipPath>
<clipPath id="clip2_0_2848">
<rect width="116.465" height="28" fill="white" transform="translate(831.58)"/>
</clipPath>
</defs>
</svg>
