<svg width="10" height="10" viewBox="0 0 10 10" fill="none" xmlns="http://www.w3.org/2000/svg">
<g clip-path="url(#clip0_0_2379)">
<path d="M5.00023 8.7502C7.07128 8.7502 8.7502 7.07128 8.7502 5.00023C8.7502 2.92918 7.07128 1.25026 5.00023 1.25026C2.92918 1.25026 1.25026 2.92918 1.25026 5.00023C1.25026 7.07128 2.92918 8.7502 5.00023 8.7502Z" stroke="#25324B" stroke-width="0.783034" stroke-linecap="round" stroke-linejoin="round"/>
<path d="M5 7.08377V7.08793" stroke="#25324B" stroke-width="0.783034" stroke-linecap="round" stroke-linejoin="round"/>
<path d="M4.99982 5.62498C4.99215 5.48972 5.02864 5.35563 5.10379 5.24291C5.17893 5.13018 5.28868 5.04493 5.41648 4.99999C5.5731 4.9401 5.71367 4.84467 5.82713 4.72122C5.9406 4.59777 6.02386 4.44967 6.07036 4.28857C6.11687 4.12748 6.12534 3.95778 6.09512 3.79286C6.06489 3.62793 5.9968 3.47227 5.89619 3.33813C5.79559 3.20399 5.66522 3.09504 5.51536 3.01984C5.36549 2.94465 5.20021 2.90527 5.03254 2.90481C4.86487 2.90434 4.69937 2.9428 4.54909 3.01716C4.39881 3.09153 4.26784 3.19976 4.16649 3.33333" stroke="#25324B" stroke-width="0.783034" stroke-linecap="round" stroke-linejoin="round"/>
</g>
<defs>
<clipPath id="clip0_0_2379">
<rect width="9.39641" height="9.39641" fill="white" transform="scale(1.06423)"/>
</clipPath>
</defs>
</svg>
