<svg width="40" height="30" viewBox="0 0 40 30" fill="none" xmlns="http://www.w3.org/2000/svg">
<path fill-rule="evenodd" clip-rule="evenodd" d="M0 0V30H40V0H0Z" fill="#2E42A5"/>
<mask id="mask0_0_844" style="mask-type:luminance" maskUnits="userSpaceOnUse" x="0" y="0" width="40" height="30">
<path fill-rule="evenodd" clip-rule="evenodd" d="M0 0V30H40V0H0Z" fill="white"/>
</mask>
<g mask="url(#mask0_0_844)">
<rect width="22.5" height="17.5" fill="#2B409A"/>
<mask id="mask1_0_844" style="mask-type:luminance" maskUnits="userSpaceOnUse" x="0" y="0" width="23" height="18">
<rect width="22.5" height="17.5" fill="white"/>
</mask>
<g mask="url(#mask1_0_844)">
<path d="M-2.50537 16.2494L2.44582 18.4209L22.6123 2.36055L25.224 -0.866364L19.9294 -1.59214L11.7039 5.32872L5.08331 9.99177L-2.50537 16.2494Z" fill="#F7FCFF"/>
<path d="M-1.82812 17.7711L0.694277 19.0312L24.2855 -1.16589H20.7438L-1.82812 17.7711Z" fill="#F50100"/>
<path d="M25.0059 16.2494L20.0547 18.4209L-0.111824 2.36055L-2.72346 -0.866364L2.57112 -1.59214L10.7966 5.32872L17.4172 9.99177L25.0059 16.2494Z" fill="#F7FCFF"/>
<path d="M24.8374 17.3414L22.315 18.6016L12.2696 9.95412L9.29134 8.98796L-2.97428 -0.855207H0.567469L12.8262 8.75432L16.0824 9.91285L24.8374 17.3414Z" fill="#F50100"/>
<mask id="path-9-outside-1_0_844" maskUnits="userSpaceOnUse" x="-2.00049" y="-2" width="26" height="21" fill="black">
<rect fill="white" x="-2.00049" y="-2" width="26" height="21"/>
<path fill-rule="evenodd" clip-rule="evenodd" d="M12.48 0H9.97998V7.5H-0.000488281V10H9.97998V17.5H12.48V10H22.4995V7.5H12.48V0Z"/>
</mask>
<path fill-rule="evenodd" clip-rule="evenodd" d="M12.48 0H9.97998V7.5H-0.000488281V10H9.97998V17.5H12.48V10H22.4995V7.5H12.48V0Z" fill="#F50100"/>
<path d="M9.97998 0V-1.5H8.47998V0H9.97998ZM12.48 0H13.98V-1.5H12.48V0ZM9.97998 7.5V9H11.48V7.5H9.97998ZM-0.000488281 7.5V6H-1.50049V7.5H-0.000488281ZM-0.000488281 10H-1.50049V11.5H-0.000488281V10ZM9.97998 10H11.48V8.5H9.97998V10ZM9.97998 17.5H8.47998V19H9.97998V17.5ZM12.48 17.5V19H13.98V17.5H12.48ZM12.48 10V8.5H10.98V10H12.48ZM22.4995 10V11.5H23.9995V10H22.4995ZM22.4995 7.5H23.9995V6H22.4995V7.5ZM12.48 7.5H10.98V9H12.48V7.5ZM9.97998 1.5H12.48V-1.5H9.97998V1.5ZM11.48 7.5V0H8.47998V7.5H11.48ZM-0.000488281 9H9.97998V6H-0.000488281V9ZM1.49951 10V7.5H-1.50049V10H1.49951ZM9.97998 8.5H-0.000488281V11.5H9.97998V8.5ZM11.48 17.5V10H8.47998V17.5H11.48ZM12.48 16H9.97998V19H12.48V16ZM10.98 10V17.5H13.98V10H10.98ZM22.4995 8.5H12.48V11.5H22.4995V8.5ZM20.9995 7.5V10H23.9995V7.5H20.9995ZM12.48 9H22.4995V6H12.48V9ZM10.98 0V7.5H13.98V0H10.98Z" fill="#F7FCFF" mask="url(#path-9-outside-1_0_844)"/>
</g>
</g>
<path d="M13.5 23L12.1983 24.2029L12.3273 22.4352L10.5752 22.1676L12.0376 21.1662L11.1545 19.6295L12.8492 20.1485L13.5 18.5L14.1508 20.1485L15.8455 19.6295L14.9624 21.1662L16.4248 22.1676L14.6727 22.4352L14.8017 24.2029L13.5 23Z" fill="#F7FCFF"/>
<path d="M26.5 15.5L25.6322 16.3019L25.7182 15.1235L24.5501 14.945L25.5251 14.2775L24.9363 13.253L26.0661 13.599L26.5 12.5L26.9339 13.599L28.0637 13.253L27.4749 14.2775L28.4499 14.945L27.2818 15.1235L27.3678 16.3019L26.5 15.5Z" fill="#F7FCFF"/>
<path d="M28.5 7.5L27.6322 8.30194L27.7182 7.12349L26.5501 6.94504L27.5251 6.27748L26.9363 5.25302L28.0661 5.59903L28.5 4.5L28.9339 5.59903L30.0637 5.25302L29.4749 6.27748L30.4499 6.94504L29.2818 7.12349L29.3678 8.30194L28.5 7.5Z" fill="#F7FCFF"/>
<path d="M33.5 11.5L32.6322 12.3019L32.7182 11.1235L31.5501 10.945L32.5251 10.2775L31.9363 9.25302L33.0661 9.59903L33.5 8.5L33.9339 9.59903L35.0637 9.25302L34.4749 10.2775L35.4499 10.945L34.2818 11.1235L34.3678 12.3019L33.5 11.5Z" fill="#F7FCFF"/>
<path d="M29.5 24.5L28.6322 25.3019L28.7182 24.1235L27.5501 23.945L28.5251 23.2775L27.9363 22.253L29.0661 22.599L29.5 21.5L29.9339 22.599L31.0637 22.253L30.4749 23.2775L31.4499 23.945L30.2818 24.1235L30.3678 25.3019L29.5 24.5Z" fill="#F7FCFF"/>
<path d="M33 16.75L32.1183 17.2135L32.2867 16.2318L31.5734 15.5365L32.5592 15.3932L33 14.5L33.4408 15.3932L34.4266 15.5365L33.7133 16.2318L33.8817 17.2135L33 16.75Z" fill="#F7FCFF"/>
</svg>
